<svg xmlns="http://www.w3.org/2000/svg" width="1500" height="1040" viewBox="0 0 1500 1040">
<rect width="100%" height="100%" fill="#f6f7f9"/>
<text x="55" y="58" font-family="Segoe UI,Arial" font-size="31" font-weight="700" fill="#182231">T369 — muon-capture daughter closure</text>
<text x="55" y="91" font-family="Segoe UI,Arial" font-size="17" fill="#667085">COMMON-PARENT RECOVERED; PARTIAL ADDED RELATION; FULL CLOSURE NOT SUPPORTED · capture-enriched holdout n=354,273</text>
<rect x="55" y="130" width="670" height="375" rx="14" fill="white" stroke="#d5dae2"/>
<rect x="775" y="130" width="670" height="375" rx="14" fill="white" stroke="#d5dae2"/>
<rect x="55" y="555" width="670" height="375" rx="14" fill="white" stroke="#d5dae2"/>
<rect x="775" y="555" width="670" height="375" rx="14" fill="white" stroke="#d5dae2"/>
<text x="79" y="165" font-family="Segoe UI,Arial" font-size="20" font-weight="600" fill="#182231">Known relation recovery</text>
<rect x="140" y="212" width="154" height="96" rx="8" fill="#dce8f5" fill-opacity="0.950"/>
<text x="217" y="265" text-anchor="middle" font-family="Segoe UI,Arial" font-size="20" font-weight="700" fill="#182231">92.90%</text>
<rect x="310" y="212" width="154" height="96" rx="8" fill="#2f6db0" fill-opacity="0.350"/>
<text x="387" y="265" text-anchor="middle" font-family="Segoe UI,Arial" font-size="20" font-weight="700" fill="#182231">7.10%</text>
<rect x="140" y="324" width="154" height="96" rx="8" fill="#dce8f5" fill-opacity="0.857"/>
<text x="217" y="377" text-anchor="middle" font-family="Segoe UI,Arial" font-size="20" font-weight="700" fill="#182231">79.56%</text>
<rect x="310" y="324" width="154" height="96" rx="8" fill="#2f6db0" fill-opacity="0.443"/>
<text x="387" y="377" text-anchor="middle" font-family="Segoe UI,Arial" font-size="20" font-weight="700" fill="#182231">20.44%</text>
<text x="163" y="448" font-family="Segoe UI,Arial" font-size="14" fill="#667085">prompt absent</text>
<text x="333" y="448" font-family="Segoe UI,Arial" font-size="14" fill="#667085">prompt present</text>
<text x="485" y="235" font-family="Segoe UI,Arial" font-size="15" fill="#182231">CE improvement</text>
<text x="485" y="275" font-family="Segoe UI,Arial" font-size="28" font-weight="700" fill="#2d8a62">+1.758%</text>
<text x="485" y="332" font-family="Segoe UI,Arial" font-size="15" fill="#182231">same-row enrichment</text>
<text x="485" y="372" font-family="Segoe UI,Arial" font-size="28" font-weight="700" fill="#2d8a62">2.88×</text>
<text x="799" y="165" font-family="Segoe UI,Arial" font-size="20" font-weight="600" fill="#182231">Prompt-child Di-ARA → neutron probability</text>
<rect x="849" y="432" width="33" height="33" fill="rgb(104,145,217)"/>
<rect x="883" y="432" width="33" height="33" fill="rgb(124,159,221)"/>
<rect x="917" y="432" width="33" height="33" fill="rgb(142,172,225)"/>
<rect x="951" y="432" width="33" height="33" fill="rgb(167,190,231)"/>
<rect x="985" y="432" width="33" height="33" fill="rgb(202,215,239)"/>
<rect x="1019" y="432" width="33" height="33" fill="rgb(221,229,243)"/>
<rect x="1053" y="432" width="33" height="33" fill="rgb(225,231,244)"/>
<rect x="1087" y="432" width="33" height="33" fill="rgb(238,241,247)"/>
<rect x="849" y="398" width="33" height="33" fill="rgb(112,151,219)"/>
<rect x="883" y="398" width="33" height="33" fill="rgb(106,147,217)"/>
<rect x="917" y="398" width="33" height="33" fill="rgb(128,162,222)"/>
<rect x="951" y="398" width="33" height="33" fill="rgb(149,177,227)"/>
<rect x="985" y="398" width="33" height="33" fill="rgb(183,202,235)"/>
<rect x="1019" y="398" width="33" height="33" fill="rgb(195,210,237)"/>
<rect x="1053" y="398" width="33" height="33" fill="rgb(224,231,244)"/>
<rect x="1087" y="398" width="33" height="33" fill="rgb(230,235,245)"/>
<rect x="849" y="364" width="33" height="33" fill="rgb(111,150,218)"/>
<rect x="883" y="364" width="33" height="33" fill="rgb(109,149,218)"/>
<rect x="917" y="364" width="33" height="33" fill="rgb(147,176,227)"/>
<rect x="951" y="364" width="33" height="33" fill="rgb(172,193,232)"/>
<rect x="985" y="364" width="33" height="33" fill="rgb(183,201,235)"/>
<rect x="1019" y="364" width="33" height="33" fill="rgb(200,213,238)"/>
<rect x="1053" y="364" width="33" height="33" fill="rgb(226,232,245)"/>
<rect x="1087" y="364" width="33" height="33" fill="rgb(235,238,246)"/>
<rect x="849" y="330" width="33" height="33" fill="rgb(100,142,216)"/>
<rect x="883" y="330" width="33" height="33" fill="rgb(121,157,221)"/>
<rect x="917" y="330" width="33" height="33" fill="rgb(124,159,221)"/>
<rect x="951" y="330" width="33" height="33" fill="rgb(145,175,226)"/>
<rect x="985" y="330" width="33" height="33" fill="rgb(171,193,232)"/>
<rect x="1019" y="330" width="33" height="33" fill="rgb(204,217,240)"/>
<rect x="1053" y="330" width="33" height="33" fill="rgb(226,232,245)"/>
<rect x="1087" y="330" width="33" height="33" fill="rgb(226,232,245)"/>
<rect x="849" y="296" width="33" height="33" fill="rgb(85,132,213)"/>
<rect x="883" y="296" width="33" height="33" fill="rgb(126,161,222)"/>
<rect x="917" y="296" width="33" height="33" fill="rgb(127,162,222)"/>
<rect x="951" y="296" width="33" height="33" fill="rgb(142,172,225)"/>
<rect x="985" y="296" width="33" height="33" fill="rgb(173,194,233)"/>
<rect x="1019" y="296" width="33" height="33" fill="rgb(199,213,238)"/>
<rect x="1053" y="296" width="33" height="33" fill="rgb(224,230,244)"/>
<rect x="1087" y="296" width="33" height="33" fill="rgb(226,232,244)"/>
<rect x="849" y="262" width="33" height="33" fill="rgb(117,155,220)"/>
<rect x="883" y="262" width="33" height="33" fill="rgb(114,152,219)"/>
<rect x="917" y="262" width="33" height="33" fill="rgb(129,163,223)"/>
<rect x="951" y="262" width="33" height="33" fill="rgb(164,188,230)"/>
<rect x="985" y="262" width="33" height="33" fill="rgb(182,201,235)"/>
<rect x="1019" y="262" width="33" height="33" fill="rgb(216,225,242)"/>
<rect x="1053" y="262" width="33" height="33" fill="rgb(228,233,245)"/>
<rect x="1087" y="262" width="33" height="33" fill="rgb(233,237,246)"/>
<rect x="849" y="228" width="33" height="33" fill="rgb(94,138,215)"/>
<rect x="883" y="228" width="33" height="33" fill="rgb(131,165,223)"/>
<rect x="917" y="228" width="33" height="33" fill="rgb(139,171,225)"/>
<rect x="951" y="228" width="33" height="33" fill="rgb(160,185,230)"/>
<rect x="985" y="228" width="33" height="33" fill="rgb(190,207,236)"/>
<rect x="1019" y="228" width="33" height="33" fill="rgb(208,219,240)"/>
<rect x="1053" y="228" width="33" height="33" fill="rgb(232,236,246)"/>
<rect x="1087" y="228" width="33" height="33" fill="rgb(232,236,246)"/>
<rect x="849" y="194" width="33" height="33" fill="rgb(119,156,220)"/>
<rect x="883" y="194" width="33" height="33" fill="rgb(151,179,227)"/>
<rect x="917" y="194" width="33" height="33" fill="rgb(160,185,230)"/>
<rect x="951" y="194" width="33" height="33" fill="rgb(156,182,229)"/>
<rect x="985" y="194" width="33" height="33" fill="rgb(193,208,237)"/>
<rect x="1019" y="194" width="33" height="33" fill="rgb(202,215,239)"/>
<rect x="1053" y="194" width="33" height="33" fill="rgb(229,234,245)"/>
<rect x="1087" y="194" width="33" height="33" fill="rgb(240,242,248)"/>
<text x="929" y="494" font-family="Segoe UI,Arial" font-size="14" fill="#667085">prompt energy: 0 → 2</text>
<text transform="translate(807,414) rotate(-90)" font-family="Segoe UI,Arial" font-size="14" fill="#667085">prompt time: 0 → 2</text>
<text x="1180" y="235" font-family="Segoe UI,Arial" font-size="15" fill="#182231">added vs presence</text>
<text x="1180" y="275" font-family="Segoe UI,Arial" font-size="28" font-weight="700" fill="#2f6db0">+1.1447%</text>
<text x="1180" y="335" font-family="Segoe UI,Arial" font-size="15" fill="#182231">joint vs unconditional</text>
<text x="1180" y="375" font-family="Segoe UI,Arial" font-size="28" font-weight="700" fill="#2f6db0">+2.8823%</text>
<text x="79" y="590" font-family="Segoe UI,Arial" font-size="20" font-weight="600" fill="#182231">Observed neutron multiplicity branch</text>
<rect x="180" y="655" width="399.48870997178614" height="38" fill="#d9e2ec"/>
<text x="379.7443549858931" y="680" text-anchor="middle" font-family="Segoe UI,Arial" font-size="13" fill="#182231">92.90%</text>
<rect x="579.4887099717862" y="655" width="29.018917940478648" height="38" fill="#2f6db0"/>
<rect x="608.5076279122649" y="655" width="1.4923720877352027" height="38" fill="#dc8b25"/>
<text x="79" y="680" font-family="Segoe UI,Arial" font-size="14" fill="#182231">prompt absent</text>
<rect x="180" y="755" width="342.1117764471058" height="38" fill="#d9e2ec"/>
<text x="351.05588822355287" y="780" text-anchor="middle" font-family="Segoe UI,Arial" font-size="13" fill="#182231">79.56%</text>
<rect x="522.1117764471057" y="755" width="85.76397205588822" height="38" fill="#2f6db0"/>
<text x="564.9937624750498" y="780" text-anchor="middle" font-family="Segoe UI,Arial" font-size="13" fill="#182231">19.95%</text>
<rect x="607.8757485029939" y="755" width="2.124251497005988" height="38" fill="#dc8b25"/>
<text x="79" y="780" font-family="Segoe UI,Arial" font-size="14" fill="#182231">prompt present</text>
<rect x="210" y="881" width="18" height="18" fill="#d9e2ec"/><text x="235" y="896" font-family="Segoe UI,Arial" font-size="14" fill="#667085">0 neutron</text>
<rect x="330" y="881" width="18" height="18" fill="#2f6db0"/><text x="355" y="896" font-family="Segoe UI,Arial" font-size="14" fill="#667085">1 neutron</text>
<rect x="450" y="881" width="18" height="18" fill="#dc8b25"/><text x="475" y="896" font-family="Segoe UI,Arial" font-size="14" fill="#667085">2+ neutron</text>
<text x="799" y="590" font-family="Segoe UI,Arial" font-size="20" font-weight="600" fill="#182231">How deep does the relation survive?</text>
<line x1="1065" y1="627" x2="1065" y2="872" stroke="#8993a1"/>
<rect x="1065" y="647" width="176.0179682653814" height="25" fill="#2d8a62"/>
<text x="799" y="665" font-family="Segoe UI,Arial" font-size="14" fill="#182231">prompt presence → neutron</text>
<text x="1249.0179682653813" y="665" font-family="Segoe UI,Arial" font-size="14" fill="#182231">+1.7577%</text>
<rect x="1065" y="709" width="114.62600083550004" height="25" fill="#2f6db0"/>
<text x="799" y="727" font-family="Segoe UI,Arial" font-size="14" fill="#182231">joint address added value</text>
<text x="1187.6260008355" y="727" font-family="Segoe UI,Arial" font-size="14" fill="#182231">+1.1447%</text>
<rect x="1065" y="771" width="275.0" height="25" fill="#2f6db0"/>
<text x="799" y="789" font-family="Segoe UI,Arial" font-size="14" fill="#182231">address → multiplicity</text>
<text x="1348.0" y="789" font-family="Segoe UI,Arial" font-size="14" fill="#182231">+2.7462%</text>
<rect x="964.9459010411533" y="833" width="100.05409895884668" height="25" fill="#dc8b25"/>
<text x="799" y="851" font-family="Segoe UI,Arial" font-size="14" fill="#182231">address → neutron timing</text>
<text x="972.9459010411533" y="851" font-family="Segoe UI,Arial" font-size="14" fill="#182231">-0.9992%</text>
<text x="55" y="1005" font-family="Segoe UI,Arial" font-size="14" fill="#667085">Source: Super-Kamiokande, Zenodo 10.5281/zenodo.15081911 · known prompt-gamma/neutron association separated from added ARA value</text>
</svg>